<svg xmlns="http://www.w3.org/2000/svg" viewBox="0 0 1200 520" fill="none">
  <rect width="1200" height="520" fill="#f6f3f2"/>
  <g fill="#d9d4cf">
    <path d="M95 210l48-42 78-14 73 21 44 42-13 34-48 7-51-16-39 5-30 28-52-12-23-26 13-27z"/>
    <path d="M337 136l35-28 92-13 90 17 40 27-8 31-42 16-57-7-65 15-58-5-31-27 4-26z"/>
    <path d="M392 236l42-21 63 6 52 31 79 10 47 47-17 25-61 6-83-9-66-22-42-37-24-36 10-15z"/>
    <path d="M673 145l36-18 95 2 86 22 67 39 3 36-43 18-72-8-56 17-58-8-39-28-27-45 8-27z"/>
    <path d="M760 270l69-18 88 9 67 33 58 55-10 33-58 5-57-30-45-4-61 15-72-28-12-39 33-31z"/>
    <path d="M969 155l44-16 73 5 52 30-17 19-64 8-56-10-35-15 3-21z"/>
    <path d="M980 314l50-8 55 17 44 44-26 18-59-12-40-28-32-31 8-10z"/>
  </g>
</svg>
