<svg xmlns="http://www.w3.org/2000/svg" viewBox="0 0 1200 620" fill="none">
  <rect width="1200" height="620" fill="#f7f2ea"/>
  <g opacity=".28">
    <path d="M118 231l48-42 77-14 72 22 48 41-12 38-49 6-55-17-37 6-32 30-47-8-31-31 18-31z" fill="#b7afa5"/>
    <path d="M342 157l31-23 92-16 107 12 57 32-6 35-47 17-60-6-63 17-61-4-43-28-7-36z" fill="#b7afa5"/>
    <path d="M395 279l49-24 73 6 62 28 84 10 48 41-16 32-57 10-88-12-74-19-47-37-32-35 8-10z" fill="#b7afa5"/>
    <path d="M690 165l42-24 104 7 92 28 71 43-7 29-58 15-67-7-64 17-57-11-35-27-28-44 7-26z" fill="#b7afa5"/>
    <path d="M795 302l64-14 74 11 66 34 55 47-11 27-51 7-46-21-52-3-57 12-65-30-10-33 33-37z" fill="#b7afa5"/>
    <path d="M998 182l44-13 70 4 46 24-15 22-53 8-48-8-43-17-1-20z" fill="#b7afa5"/>
    <path d="M1034 372l45-8 43 18 32 35-17 16-50-9-35-21-28-24 10-7z" fill="#b7afa5"/>
  </g>
  <g opacity=".12">
    <path d="M120 228l48-42 77-14 72 22 48 41-12 38-49 6-55-17-37 6-32 30-47-8-31-31 18-31z" fill="#fff"/>
    <path d="M344 154l31-23 92-16 107 12 57 32-6 35-47 17-60-6-63 17-61-4-43-28-7-36z" fill="#fff"/>
    <path d="M397 276l49-24 73 6 62 28 84 10 48 41-16 32-57 10-88-12-74-19-47-37-32-35 8-10z" fill="#fff"/>
    <path d="M692 162l42-24 104 7 92 28 71 43-7 29-58 15-67-7-64 17-57-11-35-27-28-44 7-26z" fill="#fff"/>
    <path d="M797 299l64-14 74 11 66 34 55 47-11 27-51 7-46-21-52-3-57 12-65-30-10-33 33-37z" fill="#fff"/>
  </g>
</svg>
